<svg width="56" height="80" viewBox="0 0 56 80" fill="none" xmlns="http://www.w3.org/2000/svg">
<g clip-path="url(#clip0_24_678)" filter="url(#filter0_d_24_678)">
<mask id="path-1-inside-1_24_678" fill="white">
<path fill-rule="evenodd" clip-rule="evenodd" d="M52 -2H4V0L9.3887 64.6644C9.67885 68.1462 9.82392 69.8871 10.9721 70.9435C12.1203 72 13.8672 72 17.3611 72H38.6389C42.1328 72 43.8797 72 45.0279 70.9435C46.1761 69.8871 46.3212 68.1462 46.6113 64.6644L52 0V-2Z"/>
</mask>
<path fill-rule="evenodd" clip-rule="evenodd" d="M52 -2H4V0L9.3887 64.6644C9.67885 68.1462 9.82392 69.8871 10.9721 70.9435C12.1203 72 13.8672 72 17.3611 72H38.6389C42.1328 72 43.8797 72 45.0279 70.9435C46.1761 69.8871 46.3212 68.1462 46.6113 64.6644L52 0V-2Z" fill="#ECE8FF"/>
<path d="M4 -2V-4H2V-2H4ZM52 -2H54V-4H52V-2ZM4 0H2V0.0831892L2.00691 0.166091L4 0ZM9.3887 64.6644L7.39561 64.8305L9.3887 64.6644ZM10.9721 70.9435L9.61787 72.4153L9.61788 72.4153L10.9721 70.9435ZM45.0279 70.9435L46.3821 72.4153L46.3821 72.4153L45.0279 70.9435ZM46.6113 64.6644L48.6044 64.8305L46.6113 64.6644ZM52 0L53.9931 0.166091L54 0.083189V0H52ZM4 0H52V-4H4V0ZM6 0V-2H2V0H6ZM11.3818 64.4983L5.99309 -0.166091L2.00691 0.166091L7.39561 64.8305L11.3818 64.4983ZM12.3263 69.4718C12.174 69.3316 11.984 69.0822 11.8137 68.2921C11.6314 67.4459 11.5313 66.293 11.3818 64.4983L7.39561 64.8305C7.5362 66.5175 7.65377 67.9759 7.90353 69.1348C8.16537 70.3497 8.62203 71.499 9.61787 72.4153L12.3263 69.4718ZM17.3611 70C15.5601 70 14.4028 69.9961 13.5445 69.8846C12.743 69.7805 12.4786 69.6119 12.3263 69.4718L9.61788 72.4153C10.6137 73.3316 11.7969 73.6913 13.0294 73.8513C14.205 74.0039 15.6681 74 17.3611 74V70ZM38.6389 70H17.3611V74H38.6389V70ZM43.6737 69.4718C43.5214 69.6119 43.257 69.7805 42.4555 69.8846C41.5972 69.9961 40.4399 70 38.6389 70V74C40.3319 74 41.795 74.0039 42.9706 73.8513C44.2031 73.6913 45.3863 73.3316 46.3821 72.4153L43.6737 69.4718ZM44.6182 64.4983C44.4687 66.293 44.3686 67.4459 44.1863 68.2921C44.016 69.0822 43.826 69.3316 43.6737 69.4718L46.3821 72.4153C47.378 71.499 47.8346 70.3497 48.0965 69.1348C48.3462 67.9759 48.4638 66.5175 48.6044 64.8305L44.6182 64.4983ZM50.0069 -0.166091L44.6182 64.4983L48.6044 64.8305L53.9931 0.166091L50.0069 -0.166091ZM50 -2V0H54V-2H50Z" fill="#CECCF1" mask="url(#path-1-inside-1_24_678)"/>
<path fill-rule="evenodd" clip-rule="evenodd" d="M4.83337 10L9.38874 64.6644C9.67889 68.1462 9.82396 69.8871 10.9721 70.9435C12.1203 72 13.8672 72 17.3611 72H38.639C42.1328 72 43.8798 72 45.028 70.9435C46.1761 69.8871 46.3212 68.1462 46.6113 64.6644V64.6644L51.1667 10H4.83337Z" fill="#B10AFF"/>
<path fill-rule="evenodd" clip-rule="evenodd" d="M16 72H26L20.8334 10H10.8334L16 72Z" fill="#9A31CB"/>
<path opacity="0.5" fill-rule="evenodd" clip-rule="evenodd" d="M20 0H10L10.8333 10H20.8333L20 0Z" fill="white"/>
<path fill-rule="evenodd" clip-rule="evenodd" d="M51.1667 10H43.1667L38 72H38.6389C42.1328 72 43.8797 72 45.0279 70.9435C46.1591 69.9027 46.3167 68.1974 46.5985 64.8175C46.6028 64.7668 46.607 64.7158 46.6113 64.6644L51.1667 10Z" fill="#9838C6"/>
<g opacity="0.06">
<path fill-rule="evenodd" clip-rule="evenodd" d="M44 0H52L51.1666 10H43.1666L44 0Z" fill="black" style="mix-blend-mode:soft-light"/>
</g>
<g opacity="0.06">
<path fill-rule="evenodd" clip-rule="evenodd" d="M52 0H4L4.16667 2H51.8333L52 0Z" fill="black" style="mix-blend-mode:soft-light"/>
</g>
</g>
<defs>
<filter id="filter0_d_24_678" x="-2" y="0" width="60" height="80" filterUnits="userSpaceOnUse" color-interpolation-filters="sRGB">
<feFlood flood-opacity="0" result="BackgroundImageFix"/>
<feColorMatrix in="SourceAlpha" type="matrix" values="0 0 0 0 0 0 0 0 0 0 0 0 0 0 0 0 0 0 127 0" result="hardAlpha"/>
<feOffset dy="4"/>
<feGaussianBlur stdDeviation="2"/>
<feComposite in2="hardAlpha" operator="out"/>
<feColorMatrix type="matrix" values="0 0 0 0 0 0 0 0 0 0 0 0 0 0 0 0 0 0 0.25 0"/>
<feBlend mode="normal" in2="BackgroundImageFix" result="effect1_dropShadow_24_678"/>
<feBlend mode="normal" in="SourceGraphic" in2="effect1_dropShadow_24_678" result="shape"/>
</filter>
<clipPath id="clip0_24_678">
<rect width="52" height="72" fill="white" transform="translate(2)"/>
</clipPath>
</defs>
</svg>
