<svg width="52" height="72" viewBox="0 0 52 72" fill="none" xmlns="http://www.w3.org/2000/svg">
<g clip-path="url(#clip0_24_679)">
<mask id="path-1-inside-1_24_679" fill="white">
<path fill-rule="evenodd" clip-rule="evenodd" d="M50 -2H2V0L7.3887 64.6644C7.67885 68.1462 7.82392 69.8871 8.97209 70.9435C10.1203 72 11.8672 72 15.3611 72H36.6389C40.1328 72 41.8797 72 43.0279 70.9435C44.1761 69.8871 44.3212 68.1462 44.6113 64.6644L50 0V-2Z"/>
</mask>
<path fill-rule="evenodd" clip-rule="evenodd" d="M50 -2H2V0L7.3887 64.6644C7.67885 68.1462 7.82392 69.8871 8.97209 70.9435C10.1203 72 11.8672 72 15.3611 72H36.6389C40.1328 72 41.8797 72 43.0279 70.9435C44.1761 69.8871 44.3212 68.1462 44.6113 64.6644L50 0V-2Z" fill="#ECE8FF"/>
<path d="M2 -2V-4H0V-2H2ZM50 -2H52V-4H50V-2ZM2 0H0V0.0831892L0.00690854 0.166091L2 0ZM7.3887 64.6644L5.39561 64.8305L7.3887 64.6644ZM8.97209 70.9435L7.61787 72.4153L7.61788 72.4153L8.97209 70.9435ZM43.0279 70.9435L44.3821 72.4153L44.3821 72.4153L43.0279 70.9435ZM44.6113 64.6644L46.6044 64.8305L44.6113 64.6644ZM50 0L51.9931 0.166091L52 0.083189V0H50ZM2 0H50V-4H2V0ZM4 0V-2H0V0H4ZM9.38179 64.4983L3.99309 -0.166091L0.00690854 0.166091L5.39561 64.8305L9.38179 64.4983ZM10.3263 69.4718C10.174 69.3316 9.98402 69.0822 9.81375 68.2921C9.63139 67.4459 9.53135 66.293 9.38179 64.4983L5.39561 64.8305C5.5362 66.5175 5.65377 67.9759 5.90353 69.1348C6.16537 70.3497 6.62203 71.499 7.61787 72.4153L10.3263 69.4718ZM15.3611 70C13.5601 70 12.4028 69.9961 11.5445 69.8846C10.743 69.7805 10.4786 69.6119 10.3263 69.4718L7.61788 72.4153C8.61372 73.3316 9.79692 73.6913 11.0294 73.8513C12.205 74.0039 13.6681 74 15.3611 74V70ZM36.6389 70H15.3611V74H36.6389V70ZM41.6737 69.4718C41.5214 69.6119 41.257 69.7805 40.4555 69.8846C39.5972 69.9961 38.4399 70 36.6389 70V74C38.3319 74 39.795 74.0039 40.9706 73.8513C42.2031 73.6913 43.3863 73.3316 44.3821 72.4153L41.6737 69.4718ZM42.6182 64.4983C42.4687 66.293 42.3686 67.4459 42.1863 68.2921C42.016 69.0822 41.826 69.3316 41.6737 69.4718L44.3821 72.4153C45.378 71.499 45.8346 70.3497 46.0965 69.1348C46.3462 67.9759 46.4638 66.5175 46.6044 64.8305L42.6182 64.4983ZM48.0069 -0.166091L42.6182 64.4983L46.6044 64.8305L51.9931 0.166091L48.0069 -0.166091ZM48 -2V0H52V-2H48Z" fill="#CECCF1" mask="url(#path-1-inside-1_24_679)"/>
<path fill-rule="evenodd" clip-rule="evenodd" d="M2.83337 10L7.38874 64.6644C7.67889 68.1462 7.82396 69.8871 8.97213 70.9435C10.1203 72 11.8672 72 15.3611 72H36.639C40.1328 72 41.8798 72 43.0279 70.9435C44.1761 69.8871 44.3212 68.1462 44.6113 64.6644L49.1667 10H2.83337Z" fill="#C7006B"/>
<path fill-rule="evenodd" clip-rule="evenodd" d="M14 72H24L18.8334 10H8.83337L14 72Z" fill="#C7006B"/>
<path opacity="0.5" fill-rule="evenodd" clip-rule="evenodd" d="M18 0H8L8.83333 10H18.8333L18 0Z" fill="white"/>
<path fill-rule="evenodd" clip-rule="evenodd" d="M49.1667 10H41.1667L36 72H36.6389C40.1328 72 41.8797 72 43.0279 70.9435C44.1587 69.9031 44.3165 68.1988 44.5982 64.8217C44.6025 64.7696 44.6069 64.7172 44.6113 64.6644L49.1667 10Z" fill="#C7006B"/>
<g opacity="0.06">
<path fill-rule="evenodd" clip-rule="evenodd" d="M42 0H50L49.1666 10H41.1666L42 0Z" fill="black" style="mix-blend-mode:soft-light"/>
</g>
<g opacity="0.06">
<path fill-rule="evenodd" clip-rule="evenodd" d="M50 0H2L2.16667 2H49.8333L50 0Z" fill="black" style="mix-blend-mode:soft-light"/>
</g>
<path fill-rule="evenodd" clip-rule="evenodd" d="M14.3539 27.6649L15.5102 33.105C15.6128 33.5876 15.9739 33.9617 16.4147 34.0419L20.6445 34.8111L19.3174 28.5676L24.1354 25.5858L19.2464 24.9923C19.0367 24.9668 18.8277 25.0108 18.6461 25.1185L14.3539 27.6649Z" fill="#ECE8FF" fill-opacity="0.2"/>
<path d="M24.1354 25.5858L19.3174 28.5676L20.6445 34.8111L24.8023 32.2379C25.1957 31.9944 25.3904 31.4903 25.2841 30.9903L24.1354 25.5858Z" fill="#ECE8FF" fill-opacity="0.2"/>
<path d="M14.3539 27.6649L19.3174 28.5676M14.3539 27.6649L15.5102 33.105M14.3539 27.6649L18.6461 25.1185M24.1354 25.5858L19.3174 28.5676M24.1354 25.5858L19.2464 24.9923M24.1354 25.5858L25.2841 30.9903M19.3174 28.5676L20.6445 34.8111M20.6445 34.8111L24.8023 32.2379M20.6445 34.8111L16.4147 34.0419M15.5102 33.105C15.6128 33.5876 15.9739 33.9617 16.4147 34.0419M15.5102 33.105L15.5259 33.179C15.5409 33.2496 15.5484 33.2848 15.5574 33.3167C15.6548 33.6611 15.929 33.9273 16.2761 34.0144C16.3082 34.0225 16.3437 34.029 16.4147 34.0419V34.0419M18.6461 25.1185C18.8277 25.0108 19.0367 24.9668 19.2464 24.9923M18.6461 25.1185V25.1185C18.8268 25.0113 19.0379 24.967 19.2464 24.9923V24.9923M25.2841 30.9903C25.3904 31.4903 25.1957 31.9944 24.8023 32.2379M25.2841 30.9903L25.3011 31.07C25.3156 31.1382 25.3228 31.1723 25.3274 31.2038C25.3821 31.5756 25.2236 31.9467 24.9172 32.1644C24.8913 32.1828 24.8617 32.2011 24.8023 32.2379V32.2379" stroke="#EFDFDC" stroke-width="1.4" stroke-linejoin="round"/>
<path fill-rule="evenodd" clip-rule="evenodd" d="M30.6461 37.6649L29.4898 43.105C29.3872 43.5876 29.565 44.0762 29.935 44.3287L33.4862 46.7519L34.8133 40.5084L40.4276 39.744L36.2027 37.2133C36.0215 37.1048 35.8127 37.0599 35.603 37.0845L30.6461 37.6649Z" fill="#ECE8FF" fill-opacity="0.2"/>
<path d="M40.4276 39.744L34.8133 40.5084L33.4862 46.7519L38.3313 46.0923C38.7896 46.0299 39.1726 45.6485 39.2788 45.1486L40.4276 39.744Z" fill="#ECE8FF" fill-opacity="0.2"/>
<path d="M30.6461 37.6649L34.8133 40.5084M30.6461 37.6649L29.4898 43.105M30.6461 37.6649L35.603 37.0845M40.4276 39.744L34.8133 40.5084M40.4276 39.744L36.2027 37.2133M40.4276 39.744L39.2788 45.1486M34.8133 40.5084L33.4862 46.7519M33.4862 46.7519L38.3313 46.0923M33.4862 46.7519L29.935 44.3287M29.4898 43.105C29.3872 43.5876 29.565 44.0762 29.935 44.3287M29.4898 43.105L29.4741 43.179C29.4591 43.2496 29.4516 43.2848 29.4468 43.3176C29.3957 43.6719 29.5379 44.0265 29.8196 44.2473C29.8456 44.2678 29.8754 44.2881 29.935 44.3287V44.3287M35.603 37.0845C35.8127 37.0599 36.0215 37.1048 36.2027 37.2133M35.603 37.0845V37.0845C35.8116 37.06 36.0225 37.1054 36.2027 37.2133V37.2133M39.2788 45.1486C39.1726 45.6485 38.7896 46.0299 38.3313 46.0923M39.2788 45.1486L39.2619 45.2282C39.2474 45.2964 39.2401 45.3306 39.2316 45.3612C39.1302 45.7231 38.8345 45.9976 38.4661 46.0719C38.435 46.0781 38.4004 46.0829 38.3313 46.0923V46.0923" stroke="#EFDFDC" stroke-width="1.4" stroke-linejoin="round"/>
<path fill-rule="evenodd" clip-rule="evenodd" d="M11.8511 51.4741L14.6319 56.2906C14.8786 56.7179 15.3376 56.962 15.7815 56.9021L20.042 56.3266L16.8505 50.7988L20.5113 46.4741L15.6782 47.4204C15.4709 47.4609 15.2858 47.5673 15.1463 47.7259L11.8511 51.4741Z" fill="#ECE8FF" fill-opacity="0.2"/>
<path d="M20.5113 46.4741L16.8505 50.7988L20.042 56.3266L23.2012 52.5944C23.5001 52.2414 23.5295 51.7017 23.2739 51.2591L20.5113 46.4741Z" fill="#ECE8FF" fill-opacity="0.2"/>
<path d="M11.8511 51.4741L16.8505 50.7988M11.8511 51.4741L14.6319 56.2906M11.8511 51.4741L15.1463 47.7259M20.5113 46.4741L16.8505 50.7988M20.5113 46.4741L15.6782 47.4204M20.5113 46.4741L23.2739 51.2591M16.8505 50.7988L20.042 56.3266M20.042 56.3266L23.2012 52.5944M20.042 56.3266L15.7815 56.9021M14.6319 56.2906C14.8786 56.7179 15.3376 56.962 15.7815 56.9021M14.6319 56.2906L14.6697 56.3561C14.7058 56.4186 14.7238 56.4498 14.7422 56.4773C14.9413 56.7748 15.2842 56.9432 15.6413 56.9188C15.6743 56.9166 15.7101 56.9117 15.7815 56.9021V56.9021M15.1463 47.7259C15.2858 47.5673 15.4709 47.4609 15.6782 47.4204M15.1463 47.7259V47.7259C15.285 47.5682 15.4721 47.4607 15.6782 47.4204V47.4204M23.2739 51.2591C23.5295 51.7017 23.5001 52.2414 23.2012 52.5944M23.2739 51.2591L23.3146 51.3296C23.3495 51.39 23.367 51.4202 23.3811 51.4487C23.548 51.7855 23.5119 52.1874 23.2878 52.4891C23.2689 52.5146 23.2463 52.5412 23.2012 52.5944V52.5944" stroke="#EFDFDC" stroke-width="1.4" stroke-linejoin="round"/>
</g>
<defs>
<clipPath id="clip0_24_679">
<rect width="52" height="72" fill="white"/>
</clipPath>
</defs>
</svg>
