<svg width="52" height="54" viewBox="0 0 52 54" fill="none" xmlns="http://www.w3.org/2000/svg">
<path d="M50 0H2C3.56108 15.6108 5.05186 31.2306 6.65671 46.8374C7.00645 50.2385 7.18133 51.9391 8.32315 52.9696C9.46498 54 11.1778 54 14.6033 54H37.3967C40.8222 54 42.535 54 43.6768 52.9696C44.8187 51.9391 44.9935 50.2385 45.3433 46.8374C46.9481 31.2306 48.4389 15.6107 50 0Z" fill="#E3DFE3"/>
<path opacity="0.5" d="M18 0H8L13.4 54H23.4L18 0Z" fill="white"/>
<g opacity="0.06">
<path d="M42 0H50C48.4389 15.6108 46.9482 31.2306 45.3433 46.8374C44.9936 50.2386 44.8187 51.9391 43.6769 52.9696C42.535 54 40.8223 54 37.3967 54H36.6L42 0Z" fill="black" style="mix-blend-mode:soft-light"/>
</g>
<path fill-rule="evenodd" clip-rule="evenodd" d="M2 0H50C49.9333 0.666651 49.8668 1.33332 49.8004 2H2.19962C2.1332 1.33332 2.06667 0.666651 2 0Z" fill="black" fill-opacity="0.06"/>
</svg>
