<svg width="25" height="25" viewBox="0 0 25 25" fill="none" xmlns="http://www.w3.org/2000/svg">
<g clip-path="url(#clip0_17_205)">
<path d="M22.9141 8.53515H14.5352V6.01953C14.5352 4.87109 13.6016 3.93359 12.4492 3.93359L2.08594 3.92968C0.9375 3.92578 0 4.86328 0 6.01172V12.6484C0 13.7969 0.933594 14.7344 2.08594 14.7344H2.47266V15.9062C2.47266 16.1133 2.58594 16.3008 2.76953 16.3984C2.85935 16.4466 2.96056 16.4695 3.06237 16.4647C3.16419 16.4599 3.26278 16.4275 3.34766 16.3711L5.79688 14.7344H10.4687V17.2539C10.4687 18.4023 11.4023 19.3359 12.5508 19.3359H19.207L21.6562 20.9766C21.7411 21.033 21.8397 21.0653 21.9415 21.0702C22.0433 21.075 22.1446 21.0521 22.2344 21.0039C22.418 20.9062 22.5313 20.7187 22.5313 20.5117V19.3398H22.918C24.0703 19.3398 25.0039 18.4062 25.0078 17.2578V10.625C25 9.47265 24.0625 8.53515 22.9141 8.53515ZM11.043 13.6133H5.62109C5.51172 13.6133 5.40234 13.6445 5.30859 13.707L3.58984 14.8555V14.1719C3.58984 13.8633 3.33984 13.6133 3.03125 13.6133H2.08594C1.55469 13.6133 1.12109 13.1797 1.12109 12.6484V6.01172C1.12109 5.48047 1.55469 5.04687 2.08594 5.04687L12.4492 5.05078C12.9805 5.05078 13.4141 5.48437 13.4141 6.01562V12.6484C13.4141 13.1797 12.9805 13.6133 12.4492 13.6133H11.043ZM23.8789 17.2578C23.8789 17.7891 23.4453 18.2227 22.9102 18.2227H21.9648C21.6562 18.2227 21.4062 18.4727 21.4062 18.7812V19.4648L19.6875 18.3125C19.5938 18.25 19.4883 18.2187 19.375 18.2187H12.5469C12.0156 18.2187 11.582 17.7852 11.582 17.2539V14.7344H12.4453C13.5938 14.7344 14.5313 13.8008 14.5313 12.6484V9.64843H22.9102C23.1671 9.64843 23.4135 9.7505 23.5952 9.93217C23.7768 10.1139 23.8789 10.3603 23.8789 10.6172V17.2578Z" fill="white"/>
<path d="M9.125 10.9219C9.10016 10.9001 9.07081 10.8841 9.03906 10.875C9.00391 10.8633 8.95313 10.8438 8.89063 10.8164C8.82813 10.7891 8.75391 10.75 8.66016 10.6953C8.57031 10.6406 8.46484 10.5625 8.34766 10.4609C8.42578 10.3828 8.49609 10.293 8.55469 10.1914C8.61719 10.0898 8.66797 9.97656 8.70703 9.85156C8.75 9.72656 8.78125 9.59375 8.80078 9.44922C8.82422 9.30469 8.83203 9.14844 8.83203 8.98438C8.83203 8.66406 8.79297 8.39062 8.71875 8.15625C8.64453 7.92187 8.53516 7.73047 8.38672 7.57812C8.24219 7.42578 8.0625 7.3125 7.85156 7.23828C7.64063 7.16406 7.39453 7.12891 7.12109 7.12891C6.82812 7.12891 6.57031 7.17188 6.35156 7.26172C6.12891 7.35156 5.94531 7.48047 5.79297 7.64453C5.64453 7.8125 5.53125 8.01172 5.45312 8.25C5.37891 8.48828 5.33984 8.75781 5.33984 9.05469C5.33984 9.38281 5.375 9.66797 5.44531 9.90625C5.51562 10.1445 5.625 10.3398 5.76563 10.4961C5.90625 10.6484 6.08594 10.7617 6.30078 10.8359C6.51562 10.9102 6.76562 10.9453 7.05078 10.9453C7.20312 10.9453 7.33984 10.9297 7.46484 10.9023C7.58984 10.8711 7.69531 10.8398 7.78125 10.7969C7.88672 10.918 8 11.0234 8.12109 11.1133C8.24219 11.207 8.36328 11.2852 8.48047 11.3477C8.59766 11.4102 8.70703 11.4609 8.80859 11.4961C8.91016 11.5313 8.99219 11.5469 9.05469 11.5469C9.07031 11.5469 9.08594 11.543 9.09766 11.5352C9.10938 11.5273 9.125 11.5156 9.13281 11.4922C9.14631 11.461 9.15551 11.4282 9.16016 11.3945C9.16797 11.3516 9.17187 11.2969 9.17187 11.2305C9.17187 11.1445 9.16797 11.0781 9.15625 11.0313C9.14453 10.9844 9.14844 10.9414 9.125 10.9219ZM8.00391 9.52734C7.97266 9.68359 7.91797 9.82422 7.84375 9.94141C7.76953 10.0586 7.66797 10.1523 7.54297 10.2188C7.41797 10.2891 7.26562 10.3203 7.08203 10.3203C6.89844 10.3203 6.74609 10.2891 6.625 10.2305C6.50391 10.1719 6.40625 10.082 6.33594 9.96875C6.25842 9.84209 6.20665 9.70138 6.18359 9.55469C6.15061 9.3743 6.13491 9.19118 6.13672 9.00781C6.13672 8.83594 6.15234 8.67578 6.18359 8.51953C6.21484 8.36328 6.26953 8.23047 6.34375 8.11328C6.41797 7.99609 6.51953 7.90625 6.64453 7.83594C6.76953 7.76562 6.92188 7.73437 7.10547 7.73437C7.28906 7.73437 7.44141 7.76563 7.5625 7.82813C7.68359 7.89063 7.78125 7.97656 7.85547 8.08984C7.92969 8.20312 7.98047 8.33984 8.01172 8.49609C8.04297 8.65234 8.05859 8.82813 8.05859 9.01953C8.05469 9.19922 8.03516 9.36719 8.00391 9.52734ZM18.2734 12.1016C18.2647 12.0692 18.2501 12.0388 18.2305 12.0117C18.2148 11.9883 18.1836 11.9727 18.1445 11.9609C18.091 11.9467 18.0358 11.9401 17.9805 11.9414C17.9102 11.9375 17.8164 11.9375 17.6953 11.9375C17.5937 11.9375 17.5117 11.9375 17.4492 11.9414C17.3867 11.9453 17.3398 11.9531 17.3047 11.9609C17.2695 11.9727 17.2422 11.9883 17.2266 12.0078C17.2109 12.0273 17.1953 12.0547 17.1836 12.0898L15.9805 15.5508C15.957 15.6211 15.9414 15.6758 15.9336 15.7188C15.9258 15.7617 15.9336 15.793 15.9531 15.8164C15.9727 15.8398 16.0078 15.8555 16.0625 15.8594C16.1133 15.8672 16.1875 15.8672 16.2813 15.8672C16.3672 15.8672 16.4375 15.8633 16.4922 15.8594C16.5469 15.8555 16.5859 15.8477 16.6172 15.8359C16.6445 15.8242 16.668 15.8086 16.6797 15.7891C16.6932 15.7671 16.7037 15.7435 16.7109 15.7188L16.957 14.957H18.4219L18.6836 15.7422C18.6914 15.7695 18.7031 15.7891 18.7148 15.8047C18.7266 15.8203 18.7461 15.832 18.7773 15.8438C18.8086 15.8516 18.8516 15.8594 18.9102 15.8633C18.9687 15.8672 19.0469 15.8672 19.1484 15.8672C19.2461 15.8672 19.3242 15.8633 19.3789 15.8594C19.4336 15.8555 19.4727 15.8398 19.4961 15.8203C19.5195 15.8008 19.5273 15.7695 19.5195 15.7266C19.5092 15.668 19.4935 15.6104 19.4727 15.5547L18.2734 12.1016ZM17.1367 14.3555L17.6875 12.6992H17.6914L18.2422 14.3555H17.1367Z" fill="white"/>
</g>
<defs>
<clipPath id="clip0_17_205">
<rect width="25" height="25" fill="white"/>
</clipPath>
</defs>
</svg>
