<svg width="25" height="25" viewBox="0 0 25 25" fill="none" xmlns="http://www.w3.org/2000/svg">
<path d="M12.5 3.125C12.5 3.125 6.05625 8.6875 2.4552 11.7C2.34062 11.7998 2.2483 11.9227 2.18423 12.0605C2.12017 12.1983 2.08579 12.348 2.08333 12.5C2.08333 12.7763 2.19307 13.0412 2.38843 13.2366C2.58378 13.4319 2.84873 13.5417 3.12499 13.5417H5.20833V20.8333C5.20833 21.1096 5.31808 21.3746 5.51343 21.5699C5.70878 21.7653 5.97373 21.875 6.25 21.875H9.375C9.65126 21.875 9.91621 21.7653 10.1116 21.5699C10.3069 21.3746 10.4167 21.1096 10.4167 20.8333V16.6667H14.5833V20.8333C14.5833 21.1096 14.6931 21.3746 14.8884 21.5699C15.0838 21.7653 15.3487 21.875 15.625 21.875H18.75C19.0263 21.875 19.2912 21.7653 19.4866 21.5699C19.6819 21.3746 19.7917 21.1096 19.7917 20.8333V13.5417H21.875C22.1513 13.5417 22.4162 13.4319 22.6116 13.2366C22.8069 13.0412 22.9167 12.7763 22.9167 12.5C22.9152 12.3451 22.8785 12.1926 22.8094 12.054C22.7403 11.9154 22.6405 11.7943 22.5177 11.7C18.9417 8.6875 12.5 3.125 12.5 3.125Z" fill="white"/>
</svg>
