<svg width="25" height="25" viewBox="0 0 25 25" fill="none" xmlns="http://www.w3.org/2000/svg">
<path d="M10.9375 21.875V23.4375H14.0625V21.875V17.1875H10.9375V21.875Z" fill="white"/>
<path d="M23.4375 8.40625L21.875 2.15625C21.8322 1.98291 21.7314 1.82945 21.5892 1.72142C21.4471 1.61338 21.2722 1.5573 21.0938 1.5625H3.90626C3.72779 1.5573 3.55293 1.61338 3.41078 1.72142C3.26864 1.82945 3.16778 1.98291 3.12501 2.15625L1.56251 8.40625C1.54323 8.50952 1.54323 8.61547 1.56251 8.71875C1.58147 9.30393 1.73174 9.87737 2.0022 10.3966C2.27266 10.9159 2.65639 11.3678 3.12501 11.7187V22.6563C3.12501 22.8635 3.20732 23.0622 3.35383 23.2087C3.50034 23.3552 3.69906 23.4375 3.90626 23.4375H9.37501V16.4063C9.37501 16.1991 9.45732 16.0003 9.60383 15.8538C9.75034 15.7073 9.94906 15.625 10.1563 15.625H14.8438C15.051 15.625 15.2497 15.7073 15.3962 15.8538C15.5427 16.0003 15.625 16.1991 15.625 16.4063V23.4375H21.0938C21.301 23.4375 21.4997 23.3552 21.6462 23.2087C21.7927 23.0622 21.875 22.8635 21.875 22.6563V11.7187C22.3436 11.3678 22.7274 10.9159 22.9978 10.3966C23.2683 9.87737 23.4185 9.30393 23.4375 8.71875C23.4568 8.61547 23.4568 8.50952 23.4375 8.40625ZM20.6797 10.6484C20.3287 10.8435 19.9328 10.9432 19.5313 10.9375C19.0464 10.9378 18.5733 10.7876 18.1774 10.5078C17.7814 10.2279 17.4819 9.83215 17.3203 9.375H21.7422C21.5493 9.91866 21.1626 10.3721 20.6563 10.6484H20.6797ZM12.5 10.9375C12.0151 10.9378 11.5421 10.7876 11.1461 10.5078C10.7501 10.2279 10.4507 9.83215 10.2891 9.375H14.7109C14.5493 9.83215 14.2499 10.2279 13.8539 10.5078C13.4579 10.7876 12.9849 10.9378 12.5 10.9375ZM3.25782 9.375H7.67969C7.51807 9.83215 7.21863 10.2279 6.82265 10.5078C6.42667 10.7876 5.95364 10.9378 5.46876 10.9375C5.07519 10.9391 4.6878 10.8396 4.34376 10.6484C3.8374 10.3721 3.45075 9.91866 3.25782 9.375ZM4.51563 3.125H20.4844L21.6563 7.8125H3.34376L4.51563 3.125Z" fill="white"/>
</svg>
