<svg width="52" height="54" viewBox="0 0 52 54" fill="none" xmlns="http://www.w3.org/2000/svg">
<g clip-path="url(#clip0_24_681)">
<mask id="path-1-inside-1_24_681" fill="white">
<path fill-rule="evenodd" clip-rule="evenodd" d="M50 -2H2V0C2.59573 5.95726 3.18122 11.9158 3.76671 17.8745C4.71549 27.5303 5.66429 37.1864 6.65671 46.8374C7.00645 50.2385 7.18133 51.9391 8.32315 52.9696C9.46498 54 11.1778 54 14.6033 54H37.3967C40.8222 54 42.535 54 43.6768 52.9696C44.8187 51.9391 44.9935 50.2385 45.3433 46.8374C46.3357 37.1863 47.2845 27.5303 48.2333 17.8744C48.8188 11.9158 49.4043 5.95723 50 0V-2Z"/>
</mask>
<path fill-rule="evenodd" clip-rule="evenodd" d="M50 -2H2V0C2.59573 5.95726 3.18122 11.9158 3.76671 17.8745C4.71549 27.5303 5.66429 37.1864 6.65671 46.8374C7.00645 50.2385 7.18133 51.9391 8.32315 52.9696C9.46498 54 11.1778 54 14.6033 54H37.3967C40.8222 54 42.535 54 43.6768 52.9696C44.8187 51.9391 44.9935 50.2385 45.3433 46.8374C46.3357 37.1863 47.2845 27.5303 48.2333 17.8744C48.8188 11.9158 49.4043 5.95723 50 0V-2Z" fill="#ECE8FF"/>
<path d="M2 -2V-4H0V-2H2ZM50 -2H52V-4H50V-2ZM2 0H0V0.0997512L0.0099256 0.199008L2 0ZM3.76671 17.8745L5.75713 17.679L3.76671 17.8745ZM6.65671 46.8374L4.6672 47.042L6.65671 46.8374ZM8.32315 52.9696L9.66308 51.4848L9.66308 51.4848L8.32315 52.9696ZM43.6768 52.9696L45.0168 54.4543L45.0168 54.4543L43.6768 52.9696ZM45.3433 46.8374L43.3538 46.6328L45.3433 46.8374ZM48.2333 17.8744L50.2237 18.07L48.2333 17.8744ZM50 0L51.9901 0.199007L52 0.0997512V0H50ZM2 0H50V-4H2V0ZM4 0V-2H0V0H4ZM0.0099256 0.199008C0.605452 6.15427 1.19077 12.1111 1.7763 18.0701L5.75713 17.679C5.17166 11.7206 4.586 5.76025 3.99007 -0.199007L0.0099256 0.199008ZM1.7763 18.0701C2.725 27.7252 3.67424 37.3857 4.6672 47.042L8.64622 46.6328C7.65434 36.987 6.70598 27.3355 5.75713 17.679L1.7763 18.0701ZM4.6672 47.042C4.8366 48.6893 4.97941 50.1163 5.24597 51.2502C5.5258 52.4405 5.99462 53.5622 6.98322 54.4544L9.66308 51.4848C9.50986 51.3465 9.32033 51.1026 9.13983 50.3348C8.94606 49.5105 8.82656 48.3866 8.64622 46.6328L4.6672 47.042ZM6.98322 54.4543C7.97237 55.347 9.13747 55.6983 10.3511 55.8548C11.5077 56.0039 12.944 56 14.6033 56V52C12.8371 52 11.7042 51.9961 10.8626 51.8876C10.078 51.7865 9.81576 51.6226 9.66308 51.4848L6.98322 54.4543ZM14.6033 56H37.3967V52H14.6033V56ZM37.3967 56C39.056 56 40.4923 56.0039 41.6489 55.8548C42.8625 55.6983 44.0276 55.347 45.0168 54.4543L42.3369 51.4848C42.1842 51.6226 41.922 51.7865 41.1374 51.8876C40.2958 51.9961 39.1629 52 37.3967 52V56ZM45.0168 54.4543C46.0054 53.5622 46.4742 52.4405 46.754 51.2502C47.0206 50.1163 47.1634 48.6893 47.3328 47.0419L43.3538 46.6328C43.1734 48.3866 43.0539 49.5105 42.8602 50.3348C42.6797 51.1026 42.4901 51.3465 42.3369 51.4848L45.0168 54.4543ZM47.3328 47.0419C48.3257 37.3856 49.275 27.7251 50.2237 18.07L46.2429 17.6789C45.294 27.3354 44.3456 36.987 43.3538 46.6328L47.3328 47.0419ZM50.2237 18.07C50.8092 12.1111 51.3946 6.15424 51.9901 0.199007L48.0099 -0.199007C47.414 5.76022 46.8283 11.7205 46.2429 17.6789L50.2237 18.07ZM48 -2V0H52V-2H48Z" fill="#CECCF1" mask="url(#path-1-inside-1_24_681)"/>
<path fill-rule="evenodd" clip-rule="evenodd" d="M3 4C3.25879 6.62476 3.51671 9.24963 3.77464 11.8745C4.72341 21.5303 5.67221 31.1864 6.66463 40.8374C7.01438 44.2385 7.18925 45.9391 8.33107 46.9696C9.4729 48 11.1857 48 14.6112 48H37.4046C40.8302 48 42.5429 48 43.6848 46.9696C44.8266 45.9391 45.0015 44.2385 45.3512 40.8374C46.3436 31.1865 47.2924 21.5306 48.2412 11.8749C48.4991 9.24988 48.757 6.62488 49.0158 4H3Z" fill="#A8594A"/>
<path opacity="0.6" fill-rule="evenodd" clip-rule="evenodd" d="M18 26H8L12.3998 69.998C12.7758 70 13.1763 70 13.6033 70H22.4L18 26Z" fill="#D37F53"/>
<path opacity="0.5" fill-rule="evenodd" clip-rule="evenodd" d="M8 0H18L19 10H9L8 0Z" fill="white"/>
<path fill-rule="evenodd" clip-rule="evenodd" d="M35 70H35.7967C39.2222 70 40.935 70 42.0768 68.9696C42.9112 68.2166 43.2292 67.1058 43.4765 65.2351L47.4 26H39.4L35 70Z" fill="#843C3D"/>
<g opacity="0.06">
<path fill-rule="evenodd" clip-rule="evenodd" d="M50 0H42L41 10H49.0079C49.3366 6.6664 49.6667 3.33299 50 0Z" fill="black" style="mix-blend-mode:soft-light"/>
</g>
<g opacity="0.06">
<path fill-rule="evenodd" clip-rule="evenodd" d="M2 0H50C49.9333 0.666651 49.8668 1.33332 49.8004 2H2.19962C2.1332 1.33332 2.06667 0.666651 2 0Z" fill="black" style="mix-blend-mode:soft-light"/>
</g>
</g>
<defs>
<clipPath id="clip0_24_681">
<rect width="52" height="54" fill="white"/>
</clipPath>
</defs>
</svg>
