<svg width="52" height="54" viewBox="0 0 52 54" fill="none" xmlns="http://www.w3.org/2000/svg">
<g clip-path="url(#clip0_24_680)">
<mask id="path-1-inside-1_24_680" fill="white">
<path fill-rule="evenodd" clip-rule="evenodd" d="M50 -2H2V0C2.59573 5.95726 3.18122 11.9158 3.76671 17.8745C4.71549 27.5303 5.66429 37.1864 6.65671 46.8374C7.00645 50.2385 7.18133 51.9391 8.32315 52.9696C9.46498 54 11.1778 54 14.6033 54H37.3967C40.8222 54 42.535 54 43.6768 52.9696C44.8187 51.9391 44.9935 50.2385 45.3433 46.8374C46.3357 37.1863 47.2845 27.5303 48.2333 17.8744C48.8188 11.9158 49.4043 5.95723 50 0V-2Z"/>
</mask>
<path fill-rule="evenodd" clip-rule="evenodd" d="M50 -2H2V0C2.59573 5.95726 3.18122 11.9158 3.76671 17.8745C4.71549 27.5303 5.66429 37.1864 6.65671 46.8374C7.00645 50.2385 7.18133 51.9391 8.32315 52.9696C9.46498 54 11.1778 54 14.6033 54H37.3967C40.8222 54 42.535 54 43.6768 52.9696C44.8187 51.9391 44.9935 50.2385 45.3433 46.8374C46.3357 37.1863 47.2845 27.5303 48.2333 17.8744C48.8188 11.9158 49.4043 5.95723 50 0V-2Z" fill="#ECE8FF"/>
<path d="M2 -2V-4H0V-2H2ZM50 -2H52V-4H50V-2ZM2 0H0V0.0997512L0.0099256 0.199008L2 0ZM3.76671 17.8745L5.75713 17.679L3.76671 17.8745ZM6.65671 46.8374L4.6672 47.042L6.65671 46.8374ZM8.32315 52.9696L9.66308 51.4848L9.66308 51.4848L8.32315 52.9696ZM43.6768 52.9696L45.0168 54.4543L45.0168 54.4543L43.6768 52.9696ZM45.3433 46.8374L43.3538 46.6328L45.3433 46.8374ZM48.2333 17.8744L50.2237 18.07L48.2333 17.8744ZM50 0L51.9901 0.199007L52 0.0997512V0H50ZM2 0H50V-4H2V0ZM4 0V-2H0V0H4ZM0.0099256 0.199008C0.605452 6.15427 1.19077 12.1111 1.7763 18.0701L5.75713 17.679C5.17166 11.7206 4.586 5.76025 3.99007 -0.199007L0.0099256 0.199008ZM1.7763 18.0701C2.725 27.7252 3.67424 37.3857 4.6672 47.042L8.64622 46.6328C7.65434 36.987 6.70598 27.3355 5.75713 17.679L1.7763 18.0701ZM4.6672 47.042C4.8366 48.6893 4.97941 50.1163 5.24597 51.2502C5.5258 52.4405 5.99462 53.5622 6.98322 54.4544L9.66308 51.4848C9.50986 51.3465 9.32033 51.1026 9.13983 50.3348C8.94606 49.5105 8.82656 48.3866 8.64622 46.6328L4.6672 47.042ZM6.98322 54.4543C7.97237 55.347 9.13747 55.6983 10.3511 55.8548C11.5077 56.0039 12.944 56 14.6033 56V52C12.8371 52 11.7042 51.9961 10.8626 51.8876C10.078 51.7865 9.81576 51.6226 9.66308 51.4848L6.98322 54.4543ZM14.6033 56H37.3967V52H14.6033V56ZM37.3967 56C39.056 56 40.4923 56.0039 41.6489 55.8548C42.8625 55.6983 44.0276 55.347 45.0168 54.4543L42.3369 51.4848C42.1842 51.6226 41.922 51.7865 41.1374 51.8876C40.2958 51.9961 39.1629 52 37.3967 52V56ZM45.0168 54.4543C46.0054 53.5622 46.4742 52.4405 46.754 51.2502C47.0206 50.1163 47.1634 48.6893 47.3328 47.0419L43.3538 46.6328C43.1734 48.3866 43.0539 49.5105 42.8602 50.3348C42.6797 51.1026 42.4901 51.3465 42.3369 51.4848L45.0168 54.4543ZM47.3328 47.0419C48.3257 37.3856 49.275 27.7251 50.2237 18.07L46.2429 17.6789C45.294 27.3354 44.3456 36.987 43.3538 46.6328L47.3328 47.0419ZM50.2237 18.07C50.8092 12.1111 51.3946 6.15424 51.9901 0.199007L48.0099 -0.199007C47.414 5.76022 46.8283 11.7205 46.2429 17.6789L50.2237 18.07ZM48 -2V0H52V-2H48Z" fill="#CECCF1" mask="url(#path-1-inside-1_24_680)"/>
<path fill-rule="evenodd" clip-rule="evenodd" d="M2.99207 10C3.25086 12.6248 3.50878 15.2496 3.7667 17.8745C4.71548 27.5303 5.66427 37.1864 6.6567 46.8374C7.00644 50.2385 7.18131 51.9391 8.32314 52.9696C9.46497 54 11.1777 54 14.6033 54H37.3966C40.8222 54 42.535 54 43.6768 52.9696C44.8187 51.9391 44.9935 50.2385 45.3433 46.8374C46.3357 37.1865 47.2844 27.5306 48.2332 17.8749C48.4912 15.2499 48.7491 12.6249 49.0079 10H2.99207Z" fill="#2400FF"/>
<path opacity="0.6" fill-rule="evenodd" clip-rule="evenodd" d="M19 10H9L13.3998 53.998C13.7758 54 14.1763 54 14.6033 54H23.4L19 10Z" fill="#2400FF"/>
<path opacity="0.5" fill-rule="evenodd" clip-rule="evenodd" d="M8 0H18L19 10H9L8 0Z" fill="white"/>
<path fill-rule="evenodd" clip-rule="evenodd" d="M36.6 54H37.3966C40.8222 54 42.535 54 43.6768 52.9696C44.5112 52.2166 44.8292 51.1058 45.0765 49.2351L49 10H41L36.6 54Z" fill="#2400FF"/>
<g opacity="0.06">
<path fill-rule="evenodd" clip-rule="evenodd" d="M50 0H42L41 10H49.0079C49.3366 6.6664 49.6667 3.33299 50 0Z" fill="black" style="mix-blend-mode:soft-light"/>
</g>
<g opacity="0.06">
<path fill-rule="evenodd" clip-rule="evenodd" d="M2 0H50C49.9333 0.666651 49.8668 1.33332 49.8004 2H2.19962C2.1332 1.33332 2.06667 0.666651 2 0Z" fill="black" style="mix-blend-mode:soft-light"/>
</g>
<path fill-rule="evenodd" clip-rule="evenodd" d="M21.3539 24.6649L22.5102 30.105C22.6128 30.5876 22.435 31.0762 22.065 31.3287L18.5138 33.7519L17.1867 27.5084L11.5724 26.744L15.7973 24.2133C15.9785 24.1048 16.1873 24.0599 16.397 24.0845L21.3539 24.6649Z" fill="#ECE8FF" fill-opacity="0.6"/>
<path d="M11.5724 26.744L17.1867 27.5084L18.5138 33.7519L13.6687 33.0923C13.2104 33.0299 12.8274 32.6485 12.7212 32.1486L11.5724 26.744Z" fill="#ECE8FF" fill-opacity="0.6"/>
<path d="M21.3539 24.6649L17.1867 27.5084M21.3539 24.6649L22.5102 30.105M21.3539 24.6649L16.397 24.0845M11.5724 26.744L17.1867 27.5084M11.5724 26.744L15.7973 24.2133M11.5724 26.744L12.7212 32.1486M17.1867 27.5084L18.5138 33.7519M18.5138 33.7519L13.6687 33.0923M18.5138 33.7519L22.065 31.3287M22.5102 30.105C22.6128 30.5876 22.435 31.0762 22.065 31.3287M22.5102 30.105L22.5259 30.179C22.5409 30.2496 22.5484 30.2848 22.5532 30.3176C22.6043 30.6719 22.4621 31.0265 22.1804 31.2473C22.1544 31.2678 22.1246 31.2881 22.065 31.3287V31.3287M16.397 24.0845C16.1873 24.0599 15.9785 24.1048 15.7973 24.2133M16.397 24.0845V24.0845C16.1884 24.06 15.9775 24.1054 15.7973 24.2133V24.2133M12.7212 32.1486C12.8274 32.6485 13.2104 33.0299 13.6687 33.0923M12.7212 32.1486L12.7381 32.2282C12.7526 32.2964 12.7599 32.3306 12.7684 32.3612C12.8698 32.7231 13.1655 32.9976 13.5339 33.0719C13.565 33.0781 13.5996 33.0829 13.6687 33.0923V33.0923" stroke="#EFDFDC" stroke-width="1.4" stroke-linejoin="round"/>
<path fill-rule="evenodd" clip-rule="evenodd" d="M40.1489 38.4741L37.3681 43.2906C37.1214 43.7179 36.6624 43.962 36.2185 43.9021L31.958 43.3266L35.1495 37.7988L31.4887 33.4741L36.3218 34.4204C36.5291 34.4609 36.7142 34.5673 36.8537 34.7259L40.1489 38.4741Z" fill="#ECE8FF" fill-opacity="0.6"/>
<path d="M31.4887 33.4741L35.1495 37.7988L31.958 43.3266L28.7988 39.5944C28.4999 39.2414 28.4705 38.7017 28.7261 38.2591L31.4887 33.4741Z" fill="#ECE8FF" fill-opacity="0.6"/>
<path d="M40.1489 38.4741L35.1495 37.7988M40.1489 38.4741L37.3681 43.2906M40.1489 38.4741L36.8537 34.7259M31.4887 33.4741L35.1495 37.7988M31.4887 33.4741L36.3218 34.4204M31.4887 33.4741L28.7261 38.2591M35.1495 37.7988L31.958 43.3266M31.958 43.3266L28.7988 39.5944M31.958 43.3266L36.2185 43.9021M37.3681 43.2906C37.1214 43.7179 36.6624 43.962 36.2185 43.9021M37.3681 43.2906L37.3303 43.3561C37.2942 43.4186 37.2762 43.4498 37.2578 43.4773C37.0587 43.7748 36.7158 43.9432 36.3587 43.9188C36.3257 43.9166 36.2899 43.9117 36.2185 43.9021V43.9021M36.8537 34.7259C36.7142 34.5673 36.5291 34.4609 36.3218 34.4204M36.8537 34.7259V34.7259C36.715 34.5682 36.5279 34.4607 36.3218 34.4204V34.4204M28.7261 38.2591C28.4705 38.7017 28.4999 39.2414 28.7988 39.5944M28.7261 38.2591L28.6854 38.3296C28.6505 38.39 28.633 38.4202 28.6189 38.4487C28.452 38.7855 28.4881 39.1874 28.7122 39.4891C28.7311 39.5146 28.7537 39.5412 28.7988 39.5944V39.5944" stroke="#EFDFDC" stroke-width="1.4" stroke-linejoin="round"/>
</g>
<defs>
<clipPath id="clip0_24_680">
<rect width="52" height="54" fill="white"/>
</clipPath>
</defs>
</svg>
