<svg width="52" height="54" viewBox="0 0 52 54" fill="none" xmlns="http://www.w3.org/2000/svg">
<g clip-path="url(#clip0_24_729)">
<mask id="path-1-inside-1_24_729" fill="white">
<path fill-rule="evenodd" clip-rule="evenodd" d="M50 -2H2V0C2.59573 5.95726 3.18122 11.9158 3.76671 17.8745C4.71549 27.5303 5.66429 37.1864 6.65671 46.8374C7.00645 50.2385 7.18133 51.9391 8.32315 52.9696C9.46498 54 11.1778 54 14.6033 54H37.3967C40.8222 54 42.535 54 43.6768 52.9696C44.8187 51.9391 44.9935 50.2385 45.3433 46.8374C46.3357 37.1863 47.2845 27.5303 48.2333 17.8744C48.8188 11.9158 49.4043 5.95723 50 0V-2Z"/>
</mask>
<path fill-rule="evenodd" clip-rule="evenodd" d="M50 -2H2V0C2.59573 5.95726 3.18122 11.9158 3.76671 17.8745C4.71549 27.5303 5.66429 37.1864 6.65671 46.8374C7.00645 50.2385 7.18133 51.9391 8.32315 52.9696C9.46498 54 11.1778 54 14.6033 54H37.3967C40.8222 54 42.535 54 43.6768 52.9696C44.8187 51.9391 44.9935 50.2385 45.3433 46.8374C46.3357 37.1863 47.2845 27.5303 48.2333 17.8744C48.8188 11.9158 49.4043 5.95723 50 0V-2Z" fill="#ECE8FF"/>
<path d="M2 -2V-4H0V-2H2ZM50 -2H52V-4H50V-2ZM2 0H0V0.0997512L0.0099256 0.199008L2 0ZM3.76671 17.8745L5.75713 17.679L3.76671 17.8745ZM6.65671 46.8374L4.6672 47.042L6.65671 46.8374ZM8.32315 52.9696L9.66308 51.4848L9.66308 51.4848L8.32315 52.9696ZM43.6768 52.9696L45.0168 54.4543L45.0168 54.4543L43.6768 52.9696ZM45.3433 46.8374L43.3538 46.6328L45.3433 46.8374ZM48.2333 17.8744L50.2237 18.07L48.2333 17.8744ZM50 0L51.9901 0.199007L52 0.0997512V0H50ZM2 0H50V-4H2V0ZM4 0V-2H0V0H4ZM0.0099256 0.199008C0.605452 6.15427 1.19077 12.1111 1.7763 18.0701L5.75713 17.679C5.17166 11.7206 4.586 5.76025 3.99007 -0.199007L0.0099256 0.199008ZM1.7763 18.0701C2.725 27.7252 3.67424 37.3857 4.6672 47.042L8.64622 46.6328C7.65434 36.987 6.70598 27.3355 5.75713 17.679L1.7763 18.0701ZM4.6672 47.042C4.8366 48.6893 4.97941 50.1163 5.24597 51.2502C5.5258 52.4405 5.99462 53.5622 6.98322 54.4544L9.66308 51.4848C9.50986 51.3465 9.32033 51.1026 9.13983 50.3348C8.94606 49.5105 8.82656 48.3866 8.64622 46.6328L4.6672 47.042ZM6.98322 54.4543C7.97237 55.347 9.13747 55.6983 10.3511 55.8548C11.5077 56.0039 12.944 56 14.6033 56V52C12.8371 52 11.7042 51.9961 10.8626 51.8876C10.078 51.7865 9.81576 51.6226 9.66308 51.4848L6.98322 54.4543ZM14.6033 56H37.3967V52H14.6033V56ZM37.3967 56C39.056 56 40.4923 56.0039 41.6489 55.8548C42.8625 55.6983 44.0276 55.347 45.0168 54.4543L42.3369 51.4848C42.1842 51.6226 41.922 51.7865 41.1374 51.8876C40.2958 51.9961 39.1629 52 37.3967 52V56ZM45.0168 54.4543C46.0054 53.5622 46.4742 52.4405 46.754 51.2502C47.0206 50.1163 47.1634 48.6893 47.3328 47.0419L43.3538 46.6328C43.1734 48.3866 43.0539 49.5105 42.8602 50.3348C42.6797 51.1026 42.4901 51.3465 42.3369 51.4848L45.0168 54.4543ZM47.3328 47.0419C48.3257 37.3856 49.275 27.7251 50.2237 18.07L46.2429 17.6789C45.294 27.3354 44.3456 36.987 43.3538 46.6328L47.3328 47.0419ZM50.2237 18.07C50.8092 12.1111 51.3946 6.15424 51.9901 0.199007L48.0099 -0.199007C47.414 5.76022 46.8283 11.7205 46.2429 17.6789L50.2237 18.07ZM48 -2V0H52V-2H48Z" fill="#CECCF1" mask="url(#path-1-inside-1_24_729)"/>
<path fill-rule="evenodd" clip-rule="evenodd" d="M2.99207 10C3.25086 12.6248 3.50878 15.2496 3.7667 17.8745C4.71548 27.5303 5.66427 37.1864 6.6567 46.8374C7.00644 50.2385 7.18131 51.9391 8.32314 52.9696C9.46497 54 11.1777 54 14.6033 54H37.3966C40.8222 54 42.535 54 43.6768 52.9696C44.8187 51.9391 44.9935 50.2385 45.3433 46.8374C46.3357 37.1865 47.2844 27.5306 48.2332 17.8749C48.4912 15.2499 48.7491 12.6249 49.0079 10H2.99207Z" fill="#A8594A"/>
<path opacity="0.6" fill-rule="evenodd" clip-rule="evenodd" d="M19 10H9L13.3998 53.998C13.7758 54 14.1763 54 14.6033 54H23.4L19 10Z" fill="#D37F53"/>
<path opacity="0.5" fill-rule="evenodd" clip-rule="evenodd" d="M8 0H18L19 10H9L8 0Z" fill="white"/>
<path fill-rule="evenodd" clip-rule="evenodd" d="M36.6 54H37.3966C40.8222 54 42.535 54 43.6768 52.9696C44.5112 52.2166 44.8292 51.1058 45.0765 49.2351L49 10H41L36.6 54Z" fill="#843C3D"/>
<g opacity="0.06">
<path fill-rule="evenodd" clip-rule="evenodd" d="M50 0H42L41 10H49.0079C49.3366 6.6664 49.6667 3.33299 50 0Z" fill="black" style="mix-blend-mode:soft-light"/>
</g>
<g opacity="0.06">
<path fill-rule="evenodd" clip-rule="evenodd" d="M2 0H50C49.9333 0.666651 49.8668 1.33332 49.8004 2H2.19962C2.1332 1.33332 2.06667 0.666651 2 0Z" fill="black" style="mix-blend-mode:soft-light"/>
</g>
<path fill-rule="evenodd" clip-rule="evenodd" d="M14.3539 18.6649L15.5102 24.105C15.6128 24.5876 15.9739 24.9617 16.4147 25.0419L20.6445 25.8111L19.3174 19.5676L24.1354 16.5858L19.2464 15.9923C19.0367 15.9668 18.8277 16.0108 18.6461 16.1185L14.3539 18.6649Z" fill="#ECE8FF" fill-opacity="0.6"/>
<path d="M24.1354 16.5858L19.3174 19.5676L20.6445 25.8111L24.8023 23.2379C25.1957 22.9944 25.3904 22.4903 25.2841 21.9903L24.1354 16.5858Z" fill="#ECE8FF" fill-opacity="0.6"/>
<path d="M14.3539 18.6649L19.3174 19.5676M14.3539 18.6649L15.5102 24.105M14.3539 18.6649L18.6461 16.1185M24.1354 16.5858L19.3174 19.5676M24.1354 16.5858L19.2464 15.9923M24.1354 16.5858L25.2841 21.9903M19.3174 19.5676L20.6445 25.8111M20.6445 25.8111L24.8023 23.2379M20.6445 25.8111L16.4147 25.0419M15.5102 24.105C15.6128 24.5876 15.9739 24.9617 16.4147 25.0419M15.5102 24.105L15.5259 24.179C15.5409 24.2496 15.5484 24.2848 15.5574 24.3167C15.6548 24.6611 15.929 24.9273 16.2761 25.0144C16.3082 25.0225 16.3437 25.029 16.4147 25.0419V25.0419M18.6461 16.1185C18.8277 16.0108 19.0367 15.9668 19.2464 15.9923M18.6461 16.1185V16.1185C18.8268 16.0113 19.0379 15.967 19.2464 15.9923V15.9923M25.2841 21.9903C25.3904 22.4903 25.1957 22.9944 24.8023 23.2379M25.2841 21.9903L25.3011 22.07C25.3156 22.1382 25.3228 22.1723 25.3274 22.2038C25.3821 22.5756 25.2236 22.9467 24.9172 23.1644C24.8913 23.1828 24.8617 23.2011 24.8023 23.2379V23.2379" stroke="#EFDFDC" stroke-width="1.4" stroke-linejoin="round"/>
<path fill-rule="evenodd" clip-rule="evenodd" d="M30.6461 28.6649L29.4898 34.105C29.3872 34.5876 29.565 35.0762 29.935 35.3287L33.4862 37.7519L34.8133 31.5084L40.4276 30.744L36.2027 28.2133C36.0215 28.1048 35.8127 28.0599 35.603 28.0845L30.6461 28.6649Z" fill="#ECE8FF" fill-opacity="0.6"/>
<path d="M40.4276 30.744L34.8133 31.5084L33.4862 37.7519L38.3313 37.0923C38.7896 37.0299 39.1726 36.6485 39.2788 36.1486L40.4276 30.744Z" fill="#ECE8FF" fill-opacity="0.6"/>
<path d="M30.6461 28.6649L34.8133 31.5084M30.6461 28.6649L29.4898 34.105M30.6461 28.6649L35.603 28.0845M40.4276 30.744L34.8133 31.5084M40.4276 30.744L36.2027 28.2133M40.4276 30.744L39.2788 36.1486M34.8133 31.5084L33.4862 37.7519M33.4862 37.7519L38.3313 37.0923M33.4862 37.7519L29.935 35.3287M29.4898 34.105C29.3872 34.5876 29.565 35.0762 29.935 35.3287M29.4898 34.105L29.4741 34.179C29.4591 34.2496 29.4516 34.2848 29.4468 34.3176C29.3957 34.6719 29.5379 35.0265 29.8196 35.2473C29.8456 35.2678 29.8754 35.2881 29.935 35.3287V35.3287M35.603 28.0845C35.8127 28.0599 36.0215 28.1048 36.2027 28.2133M35.603 28.0845V28.0845C35.8116 28.06 36.0225 28.1054 36.2027 28.2133V28.2133M39.2788 36.1486C39.1726 36.6485 38.7896 37.0299 38.3313 37.0923M39.2788 36.1486L39.2619 36.2282C39.2474 36.2964 39.2401 36.3306 39.2316 36.3612C39.1302 36.7231 38.8345 36.9976 38.4661 37.0719C38.435 37.0781 38.4004 37.0829 38.3313 37.0923V37.0923" stroke="#EFDFDC" stroke-width="1.4" stroke-linejoin="round"/>
<path fill-rule="evenodd" clip-rule="evenodd" d="M11.8511 42.4741L14.6319 47.2906C14.8786 47.7179 15.3376 47.962 15.7815 47.9021L20.042 47.3266L16.8505 41.7988L20.5113 37.4741L15.6782 38.4204C15.4709 38.4609 15.2858 38.5673 15.1463 38.7259L11.8511 42.4741Z" fill="#ECE8FF" fill-opacity="0.6"/>
<path d="M20.5113 37.4741L16.8505 41.7988L20.042 47.3266L23.2012 43.5944C23.5001 43.2414 23.5295 42.7017 23.2739 42.2591L20.5113 37.4741Z" fill="#ECE8FF" fill-opacity="0.6"/>
<path d="M11.8511 42.4741L16.8505 41.7988M11.8511 42.4741L14.6319 47.2906M11.8511 42.4741L15.1463 38.7259M20.5113 37.4741L16.8505 41.7988M20.5113 37.4741L15.6782 38.4204M20.5113 37.4741L23.2739 42.2591M16.8505 41.7988L20.042 47.3266M20.042 47.3266L23.2012 43.5944M20.042 47.3266L15.7815 47.9021M14.6319 47.2906C14.8786 47.7179 15.3376 47.962 15.7815 47.9021M14.6319 47.2906L14.6697 47.3561C14.7058 47.4186 14.7238 47.4498 14.7422 47.4773C14.9413 47.7748 15.2842 47.9432 15.6413 47.9188C15.6743 47.9166 15.7101 47.9117 15.7815 47.9021V47.9021M15.1463 38.7259C15.2858 38.5673 15.4709 38.4609 15.6782 38.4204M15.1463 38.7259V38.7259C15.285 38.5682 15.4721 38.4607 15.6782 38.4204V38.4204M23.2739 42.2591C23.5295 42.7017 23.5001 43.2414 23.2012 43.5944M23.2739 42.2591L23.3146 42.3296C23.3495 42.39 23.367 42.4202 23.3811 42.4487C23.548 42.7855 23.5119 43.1874 23.2878 43.4891C23.2689 43.5146 23.2463 43.5412 23.2012 43.5944V43.5944" stroke="#EFDFDC" stroke-width="1.4" stroke-linejoin="round"/>
</g>
<defs>
<clipPath id="clip0_24_729">
<rect width="52" height="54" fill="white"/>
</clipPath>
</defs>
</svg>
