<svg width="52" height="77" viewBox="0 0 52 77" fill="none" xmlns="http://www.w3.org/2000/svg">
<path d="M2 0H50L44.6113 64.6644C44.3212 68.1462 44.1761 69.8871 43.0279 70.9435C41.8797 72 40.1328 72 36.6389 72H15.3611C11.8672 72 10.1203 72 8.97209 70.9435C7.82392 69.8871 7.67885 68.1462 7.3887 64.6644L2 0Z" fill="#E3DFE3"/>
<path opacity="0.5" d="M8 0H18L24 72H14L8 0Z" fill="white"/>
<g opacity="0.06">
<path d="M50 0H42L36 72H36.6389C40.1328 72 41.8797 72 43.0279 70.9435C44.1761 69.8871 44.3212 68.1462 44.6113 64.6644L50 0Z" fill="black" style="mix-blend-mode:soft-light"/>
</g>
<path fill-rule="evenodd" clip-rule="evenodd" d="M50 0H2L2.16667 2H49.8333L50 0Z" fill="black" fill-opacity="0.06"/>
<path fill-rule="evenodd" clip-rule="evenodd" d="M5.83333 51L6.16666 55H45.8333L46.1667 51H5.83333ZM15.2015 77H36.7985L36.6389 77H15.3611L15.2015 77Z" fill="#D27F55" fill-opacity="0.3"/>
<path fill-rule="evenodd" clip-rule="evenodd" d="M46.6528 17C48.6869 17 49.704 17 50.2982 17.6458C50.8924 18.2916 50.8079 19.3051 50.639 21.3322L48.3057 49.3322C48.1606 51.0731 48.088 51.9435 47.514 52.4718C46.9399 53 46.0664 53 44.3195 53H7.68053C5.9336 53 5.06013 53 4.48605 52.4718C3.91196 51.9435 3.83942 51.0731 3.69435 49.3322L1.36101 21.3322C1.19209 19.3051 1.10763 18.2916 1.70183 17.6458C2.29604 17 3.31309 17 5.3472 17H46.6528Z" fill="#9E235F"/>
<g opacity="0.4">
<path fill-rule="evenodd" clip-rule="evenodd" d="M15 17L18 53H8L5 17H15Z" fill="white" style="mix-blend-mode:soft-light"/>
</g>
<path style="mix-blend-mode:soft-light" fill-rule="evenodd" clip-rule="evenodd" d="M44 53.0001H44.3195C46.0664 53.0001 46.9399 53.0001 47.514 52.4719C48.088 51.9436 48.1606 51.0732 48.3057 49.3323L50.639 21.3323C50.8079 19.3052 50.8924 18.2917 50.2982 17.6459C49.7388 17.038 48.8046 17.0023 47 17.0002L44 53.0001Z" fill="black" fill-opacity="0.4"/>
<path fill-rule="evenodd" clip-rule="evenodd" d="M9 27C9 26.4477 9.44772 26 10 26C10.5523 26 11 26.4477 11 27V43C11 43.5523 10.5523 44 10 44C9.44772 44 9 43.5523 9 43V27ZM13 27C13 26.4477 13.4477 26 14 26C14.5523 26 15 26.4477 15 27V43C15 43.5523 14.5523 44 14 44C13.4477 44 13 43.5523 13 43V27ZM18 26C17.4477 26 17 26.4477 17 27V43C17 43.5523 17.4477 44 18 44C18.5523 44 19 43.5523 19 43V27C19 26.4477 18.5523 26 18 26ZM21 27C21 26.4477 21.4477 26 22 26C22.5523 26 23 26.4477 23 27V43C23 43.5523 22.5523 44 22 44C21.4477 44 21 43.5523 21 43V27ZM26 26C25.4477 26 25 26.4477 25 27V43C25 43.5523 25.4477 44 26 44C26.5523 44 27 43.5523 27 43V27C27 26.4477 26.5523 26 26 26ZM29 27C29 26.4477 29.4477 26 30 26C30.5523 26 31 26.4477 31 27V43C31 43.5523 30.5523 44 30 44C29.4477 44 29 43.5523 29 43V27ZM34 26C33.4477 26 33 26.4477 33 27V43C33 43.5523 33.4477 44 34 44C34.5523 44 35 43.5523 35 43V27C35 26.4477 34.5523 26 34 26ZM37 27C37 26.4477 37.4477 26 38 26C38.5523 26 39 26.4477 39 27V43C39 43.5523 38.5523 44 38 44C37.4477 44 37 43.5523 37 43V27ZM42 26C41.4477 26 41 26.4477 41 27V43C41 43.5523 41.4477 44 42 44C42.5523 44 43 43.5523 43 43V27C43 26.4477 42.5523 26 42 26Z" fill="#AB604B" style="mix-blend-mode:darken"/>
</svg>
